<svg xmlns="http://www.w3.org/2000/svg" viewBox="0 0 64 64">
  <!-- Barred owl: round tuftless head, dark eyes, pale facial discs, streaked belly -->
  <ellipse cx="32" cy="43" rx="19" ry="19" fill="#e6d6b8"/>
  <path d="M13.5 36 q-3.5 12 3.5 20 q4.5 -10 1.5 -20 z" fill="#7b5c43"/>
  <path d="M50.5 36 q3.5 12 -3.5 20 q-4.5 -10 -1.5 -20 z" fill="#7b5c43"/>
  <g stroke="#7b5c43" stroke-width="3.4" stroke-linecap="round" fill="none">
    <path d="M24 40 v11"/>
    <path d="M32 42 v13"/>
    <path d="M40 40 v11"/>
  </g>
  <circle cx="32" cy="20" r="17" fill="#7b5c43"/>
  <circle cx="24.5" cy="20" r="9.5" fill="#efe3c8"/>
  <circle cx="39.5" cy="20" r="9.5" fill="#efe3c8"/>
  <circle cx="24.5" cy="20" r="9.5" fill="none" stroke="#5f4531" stroke-width="1.6"/>
  <circle cx="39.5" cy="20" r="9.5" fill="none" stroke="#5f4531" stroke-width="1.6"/>
  <circle cx="24.5" cy="20" r="6.3" fill="none" stroke="#c9b493" stroke-width="1.2" opacity=".6"/>
  <circle cx="39.5" cy="20" r="6.3" fill="none" stroke="#c9b493" stroke-width="1.2" opacity=".6"/>
  <circle cx="24.5" cy="20" r="4.2" fill="#241811"/>
  <circle cx="39.5" cy="20" r="4.2" fill="#241811"/>
  <circle cx="26" cy="18.5" r="1.3" fill="#fff" opacity=".85"/>
  <circle cx="41" cy="18.5" r="1.3" fill="#fff" opacity=".85"/>
  <path d="M32 23.5 l-3.4 4.5 q3.4 3.2 6.8 0 z" fill="#d9a13f"/>
</svg>
